<svg version="1.0" xmlns="http://www.w3.org/2000/svg" viewBox="0 0 208.2 27.121">
    <g fill="currentColor" class="iconlinesvg-g iconlinesvg">
        <g class="tp-name">
            <path
                d="M15.802 2.57h-5.06L.002 24.55h5.96l1.95-4.41h5.87l.84 4.41h5.96Zm-5.93 12.64 2.42-6.43h.22l.65 6.43ZM31.75 2.57h-5.62l-2.05 14.56c-.71 5.15 3.26 7.73 7.67 7.73 4.38 0 9.16-2.58 9.87-7.73l2.05-14.56h-5.62L36 17.13c-.24 1.77-1.86 2.64-3.5 2.64-1.59 0-3.05-.87-2.8-2.64ZM64.483 7.63l.74-5.09h-17.48l-.74 5.09h5.93l-2.33 16.92h5.62l2.33-16.92ZM69.08 17.32c-.71 5.03 3.48 7.54 8.04 7.54 4.78 0 9.47-2.51 10.18-7.54l1.09-7.52c.71-5.03-3.51-7.54-8.07-7.54-4.57 0-9.41 2.48-10.15 7.54Zm6.64-7.52c.25-1.64 2.21-2.48 4.01-2.48 1.8 0 3.35.84 3.1 2.48l-1.08 7.36c-.25 1.74-2.21 2.55-4.01 2.55-1.68 0-3.32-.81-3.1-2.39Z"
                data-gra="path-name" />

            <g transform="translate(92, 1) scale(0.25)">
                <path
                    d="m17.73 10.66 35.45 66.65 6.3-11.85L45 38.15 30.34 10.66zM65.51 76.8 53.18 100 26.59 50 0 0h36.74l5.66 10.66 23.11 43.45 6 11.35z"
                    fill="#01a9f0" />
                <path
                    d="m78.35 30 10.27-19.34H68.08zm22.34-19.31-16.3 30.62L79.76 50l-1.41 2.66L76.94 50l-4.62-8.69L56 10.66 50.35 0h56z"
                    fill="currentColor" />
            </g>

            <path
                d="M132.626 2.57h-5.55l-3.08 21.98h5.56ZM136 20.89c1.68 2.64 4.94 3.97 7.57 3.97 4.75 0 8.48-2.14 9.29-6.43 1.02-5.46-2.7-6.92-6.52-7.63-1.68-.38-2.8-.93-2.64-2.21.12-1.11 1.3-1.64 2.7-1.61 1.27.03 2.73.53 3.66 1.58l4.04-2.79c-1.9-2.76-4.38-3.51-7.05-3.51-4.03 0-8.01 1.58-8.85 6.08-.77 4.16 2.33 6.93 5.78 7.49 1.77.24 3.69.83 3.44 2.2-.21 1.15-1.52 1.68-3.01 1.68-1.64 0-3.47-.72-4.44-2.11ZM166.626 2.57h-5.55l-3.08 21.98h5.56ZM187.483 7.63l.74-5.09h-17.48l-.74 5.09h5.93l-2.33 16.92h5.62l2.33-16.92ZM203.25 2.57h-5.06l-10.74 21.98h5.96l1.95-4.41h5.87l.84 4.41h5.96Zm-5.93 12.64 2.42-6.43h.22l.65 6.43Z"
                data-gra="path-name" />
        </g>
    </g>
</svg>