<svg xmlns:xlink="http://www.w3.org/1999/xlink" xmlns="http://www.w3.org/2000/svg" viewBox="0 0 90.63 43.09"
    width="90.63" height="43.09">
    <g id="Capa_2" data-name="Capa 2">
        <g id="Capa_1-2" data-name="Capa 1">
            <path
                d="M0 32.36V7.46H4.52l.32 2.21a6.58 6.58 0 0 1 5.74-2.52c5.08 0 8.55 3.57 8.55 9 0 5.6-3.54 9-8.62 9a6.88 6.88 0 0 1-5.43-2.45v9.7ZM14 16.11a4.12 4.12 0 0 0-4.24-4.45c-2.28 0-4.66 1.16-4.66 4.45a4.43 4.43 0 0 0 4.66 4.45A4.12 4.12 0 0 0 14 16.11ZM27.81 2.84c0 3.78-5.74 3.78-5.74 0S27.81-.95 27.81 2.84ZM22.41 7.39V24.73h5V7.39ZM42.62 12.33a6.61 6.61 0 0 0-4.1-1.26c-1.65 0-2.49.6-2.49 1.44S36.91 14 38.59 14c3.4.1 7.5.81 7.53 5.57 0 2.8-2.07 5.81-7.57 5.81a11.74 11.74 0 0 1-8.13-2.94l2.17-3.57a9.25 9.25 0 0 0 6 2.17c1.47 0 2.63-.56 2.59-1.47s-.6-1.47-2.94-1.54C35.06 17.9 31 16.57 31 12.5s3.71-5.57 7.46-5.57a9.56 9.56 0 0 1 6.62 2.24ZM48.12 16.11c0-5.22 3.71-9.07 9.46-9.07s9.49 3.85 9.49 9.07-3.61 9-9.49 9S48.12 21.33 48.12 16.11Zm13.83 0a4.36 4.36 0 1 0-8.72 0 4.22 4.22 0 0 0 4.34 4.52C60.66 20.63 62 18.39 62 16.11ZM81.21 12.33a6.61 6.61 0 0 0-4.1-1.26c-1.65 0-2.49.6-2.49 1.44S75.51 14 77.19 14c3.4.1 7.5.81 7.53 5.57 0 2.8-2.07 5.81-7.57 5.81A11.74 11.74 0 0 1 69 22.45l2.17-3.57a9.25 9.25 0 0 0 6 2.17c1.47 0 2.63-.56 2.59-1.47s-.6-1.47-2.94-1.54c-3.22-.14-7.25-1.47-7.25-5.53s3.71-5.57 7.46-5.57A9.56 9.56 0 0 1 83.7 9.18Z" />
            <path
                d="M50.75 40.86a1.81 1.81 0 0 1-.09.6 2.38 2.38 0 0 1-.6 1 2.14 2.14 0 0 1-.85.54 1.37 1.37 0 0 1-1 0 1.4 1.4 0 0 1-.73-1.27A2.29 2.29 0 0 1 48 40.24a1.69 1.69 0 0 1 .59-.5 1.59 1.59 0 0 1 2 .61A1.55 1.55 0 0 1 50.75 40.86ZM62.19 36.79a1.11 1.11 0 0 0-.2.4c-.06.16-.15.27-.27.27s-.13 0-.13-.06 0 0 0 0 0 .1 0 .13 0 0 .1 0h.26a1.12 1.12 0 0 0-.18.3.33.33 0 0 0 0 .29c-.18.17 0 .72-.24.89s-.28.29-.5.47a.84.84 0 0 1-.33.14c-.17 0-.24.2-.33.33a4.5 4.5 0 0 1-.89.75c-.55.45-1 1-1.64 1.37a6.17 6.17 0 0 1-1.68.72 3.48 3.48 0 0 1-3.14-.48 3.86 3.86 0 0 1-1.41-2.91 12.56 12.56 0 0 1 .19-2.59 15.32 15.32 0 0 1 3.21-6.46 2.89 2.89 0 0 1 1.6-1.11 2.34 2.34 0 0 1 2.1 1 3.15 3.15 0 0 1 .76 1.94c0 .66 0 1.77-.59 2.2s-1 0-1.28-.42a2.72 2.72 0 0 1-.31-.72c0-.12-.06-.33-.19-.38-.42-.17-1 .65-1.22.93A8 8 0 0 0 54.75 36a12.9 12.9 0 0 0-.79 3 1.54 1.54 0 0 0 .3 1.32 1.94 1.94 0 0 0 1.82.26 6.9 6.9 0 0 0 2.58-1.45 9.53 9.53 0 0 1 1.12-.83c.44-.26.92-.45 1.35-.73a11.85 11.85 0 0 1 1.22-.71ZM90.56 38.42c.12.14 0 .46.06.7.12.62-.65 1-1.12 1.19a4.84 4.84 0 0 1-1.72.27 3.37 3.37 0 0 1-2.1-.37A4.41 4.41 0 0 1 84 37c-.07-.37 0-.42-.31-.73a.32.32 0 0 0-.42-.09 8.56 8.56 0 0 0-1.75 2.45 9.87 9.87 0 0 1-2.16 2.57 1.7 1.7 0 0 1-1.77.19 4.11 4.11 0 0 1-1.08-.71 2.15 2.15 0 0 1-.51-2c.09-.79.24-1.58.38-2.36.07-.35.5-1.63 0-1.85s-.88.83-1 1.06c-.45.81-1 1.54-1.49 2.31-.41.62-.72 1.32-1.09 2q-.38.66-.8 1.31a2.62 2.62 0 0 1-.92 1.06 1.35 1.35 0 0 1-1.81-.85 5.92 5.92 0 0 1 .06-3.11q.34-1.52.69-3c.5-2.16 1-5.24 1.5-7.39a1.17 1.17 0 0 1 1-.91c2.67-.35 1.19 4.83.88 6.07a3.76 3.76 0 0 0-.23 1 .34.34 0 0 0 .15.28.4.4 0 0 0 .48-.16 26 26 0 0 0 1.5-2.47c.34-.57.68-1.43 1.29-1.76 1-.55 2.41.44 2.92 1.29.81 1.35-.13 3.93-.46 5.34 0 .18-.22.74 0 .74s.86-.75 1-.92c.62-.81 1.5-2.33 2.09-3.16a8.16 8.16 0 0 1 1.6-2.13c.54-.34 1 0 1.52.2.17.07.35.11.51.18a2.2 2.2 0 0 1 1 2.21A22.47 22.47 0 0 0 86.7 38a1.11 1.11 0 0 0 1.27 1 5.62 5.62 0 0 0 1.2-.17 9.64 9.64 0 0 1 1.1-.42C90.42 38.34 90.51 38.36 90.56 38.42Z"
                class="cls-2" />
            <path
                d="M69.31,35.2a5.36,5.36,0,0,1-.08.73,9,9,0,0,1-2.54,4.49l-1.1,1.09L65,42.1a3.18,3.18,0,0,1-.61.57,2.82,2.82,0,0,1-4-1.13,1.68,1.68,0,0,0-.26-.44,1.9,1.9,0,0,1-.45-1,3.89,3.89,0,0,1,.08-1.53,12.38,12.38,0,0,1,2.45-5.31c.14-.17,1.58-1.93,1.05-2-.15,0-.45.08-.48-.16a1.2,1.2,0,0,1,.25-.62,2.33,2.33,0,0,1,.93-.79,4.78,4.78,0,0,1,1.16-.48,1.67,1.67,0,0,1,1.5.61c.19.19.36.41.53.62s.44.36.62.57A6,6,0,0,1,69.31,35.2Zm-2.52-1.05a2.77,2.77,0,0,0-.35-1,.55.55,0,0,0-1,0,9.45,9.45,0,0,1-.74,1.16,13.4,13.4,0,0,0-1,2c-.42,1-.84,1.92-1.21,2.89-.08.22-.3.62-.16.85.34.56,1-.23,1.31-.39a3,3,0,0,0,1.45-1.2l.67-1.14c.14-.23.27-.47.39-.71a6.89,6.89,0,0,0,.3-.8c.11-.34.21-.68.3-1A1.83,1.83,0,0,0,66.79,34.15Z"
                class="cls-2" />
        </g>
    </g>
</svg>