<?xml version="1.0" encoding="UTF-8"?>
<svg color-interpolation-filters="sRGB" style="margin:auto" viewBox="0 0 190 75" xmlns="http://www.w3.org/2000/svg">
    <g class="iconlinesvg-g iconlinesvg" data-v-0dd9719b="">
        <g class="tp-name" transform="translate(0)">
            <g transform="translate(0 4.6525)">
                <g transform="scale(1)" data-gra="path-name">
                    <path transform="translate(-2.9354 46.497)"
                        d="m30.7-31.82v-7.4l-7.33-7.28h-13.15l-7.28 7.28v31.94l7.28 7.28h13.15l7.33-7.28v-7.4h-8.8v3.35l-2.58 2.52h-5.05l-2.53-2.52v-23.84l2.53-2.52h5.05l2.58 2.52v3.35z" />
                </g>
            </g>
            <g transform="translate(31 4.6525)">
                <g transform="scale(1)" data-gra="path-name">
                    <path transform="translate(-2.9354 46.497)" d="m2.94-46.5v46.5h8.8v-46.5z" />
                </g>
            </g>
            <g transform="translate(43 4.6525)">
                <g transform="scale(1)" data-gra="path-name">
                    <path transform="translate(-2.9354 46.497)"
                        d="m28.12-37.69v-8.81h-25.18v8.81h8.21v37.69h8.81v-37.69z" />
                </g>
            </g>
            <g transform="translate(72 4.6525)">
                <g transform="scale(1)" data-gra="path-name">
                    <path transform="translate(-2.9354 46.497)"
                        d="m11.74-18.85h3.64l5.23 18.85h9.16l-5.52-19.78 6.45-6.4v-13.04l-7.33-7.28h-20.43v46.5h8.8zm0-18.84h7.58l2.58 2.46v5l-2.58 2.58h-7.58z" />
                </g>
            </g>
            <g transform="translate(103)">
                <g>
                    <g>
                        <g>
                            <g>
                                <g transform="scale(0.55)">
                                    <g transform="matrix(.69 0 0 .69 15.5 15.5)">
                                        <path
                                            d="M-15.65 52.89c5.88 0 13.43-.8 20.54-.5a58.7 58.7 0 0 1 20.45 4.03A138.14 138.14 0 0 1 44.4 66.2c1.64.93 3.29 1.78 4.99 2.76s3.44 1.78 5.24 2.69c3.67 1.79 7.49 3.26 11.42 4.4 4.16 1.14 8.44 1.73 12.75 1.78 4.59.06 9.18-.46 13.64-1.55a68.521 68.521 0 0 0 25.1-11.83c.94-.71 1.78-1.42 2.69-2.16.37-2.1.64-4.22.82-6.38-1.07.46-2.24.94-3.56 1.39a97.432 97.432 0 0 1-23.15 5.34c-4.09.42-8.2.54-12.31.36-3.93-.18-7.83-.67-11.68-1.46-3.69-.76-7.31-1.83-10.83-3.19-1.78-.68-3.44-1.41-5.11-2.16-1.67-.75-3.33-1.57-4.97-2.37a94.778 94.778 0 0 0-20.04-8.14 61.916 61.916 0 0 0-22.66-.84c-10.8 1.6-22.05 5.16-27.98 5.73v1.99c1.85.27 3.72.38 5.59.33z">
                                        </path>
                                        <path
                                            d="M33.53 35.33a90.408 90.408 0 0 1 19.91 10.19l4.63 2.92c1.55.98 3.08 1.92 4.67 2.81 3.11 1.85 6.37 3.42 9.76 4.7 3.51 1.26 7.19 2.02 10.92 2.24 3.97.24 7.96-.01 11.88-.73 7.69-1.5 15.19-3.81 22.39-6.91l3.56-1.5c0-1.78-.12-3.56-.28-5.34-.96-.14-2.03-.27-3.13-.36-5.65-.41-12.68-.18-19.47-.57-3.4-.18-6.8-.48-10.15-.93-3.35-.45-6.68-1-9.99-1.78-3.35-.72-6.64-1.66-9.87-2.81-1.61-.59-3.25-1.22-4.92-1.87l-4.97-2.14a107.46 107.46 0 0 0-21.84-7.53 67.307 67.307 0 0 0-25.81.05A75.238 75.238 0 0 0-20.5 39.69c-.09.62-.18 1.25-.25 1.78a77.033 77.033 0 0 1 30.28-8.91c8.11-.77 16.28.18 24 2.77zM50 121.25c20.97.02 40.88-9.21 54.41-25.24a71.492 71.492 0 0 1-10.9 4.9c-4.24 1.46-8.57 2.65-12.97 3.56-4.26.93-8.39 1.66-12.47 2.32s-8.12 1.21-12.2 1.53c-2.05.12-4.11.21-6.18.25s-4.19-.11-6.29-.25c-8.47-.69-16.8-2.57-24.74-5.61-7.31-2.74-14.34-6.2-20.96-10.33-3.08-1.92-6-3.72-8.73-5.66A71.3 71.3 0 0 0 50 121.25z">
                                        </path>
                                        <path
                                            d="M19.24 84a207.33 207.33 0 0 0 21.98 9.21c1.96.68 3.95 1.32 5.97 1.91 2.01.59 4.08 1.19 6.16 1.78 4.17 1.01 8.41 1.73 12.68 2.16 4.38.41 8.79.32 13.14-.25 4.64-.61 9.2-1.76 13.57-3.42a67.142 67.142 0 0 0 20.34-12.25c2.05-3.9 3.73-7.97 5.02-12.18l-.43.43a64.346 64.346 0 0 1-25.54 10.19c-4.57.79-9.19 1.22-13.82 1.26-4.41.04-8.82-.21-13.2-.77-4.08-.49-8.13-1.24-12.11-2.26-1.92-.5-3.81-1.05-5.66-1.6-1.85-.56-3.56-1.21-5.34-1.79-7.12-2.51-13.73-5.02-20.34-6.79-6.52-1.62-13.17-2.61-19.88-2.97-6.57-.5-13.29-.39-18.7-1.96-1.02-.28-2.02-.65-2.97-1.1.23 1.16.48 2.3.75 3.44.59.41 1.21.8 1.78 1.18 5.17 3.03 11.38 4.72 17.44 7.25 6.05 2.51 12.37 5.19 19.16 8.53zM-12.6 23.96a56.768 56.768 0 0 1 24.69-10.1 66.52 66.52 0 0 1 26.29.94c7.82 1.88 15.4 4.68 22.57 8.34l5.09 2.55 4.84 2.58c3.17 1.78 6.29 3.29 9.39 4.68a45.15 45.15 0 0 0 9.51 2.94c3.25.58 6.55.85 9.85.8 6.61 0 13.3-.89 18.54-.41.66 0 1.28.14 1.89.25-.53-2.76-1.23-5.49-2.08-8.18-4.92-3.45-10.11-6.5-15.51-9.12-2.92-1.5-5.93-2.99-9.1-4.33a84.895 84.895 0 0 0-9.92-3.56c-3.42-.94-6.96-1.78-10.69-2.69-1.82-.43-3.65-.84-5.5-1.23-1.78-.43-3.74-.84-5.63-1.21-7.8-1.68-15.75-2.64-23.72-2.87a84.819 84.819 0 0 0-25.83 3.58 65.278 65.278 0 0 0-24.42 13.84 47.369 47.369 0 0 0-4.6 4.9c-.39 1.09-.77 2.19-1.1 3.29 1.63-1.85 3.45-3.52 5.44-4.99z">
                                        </path>
                                        <path
                                            d="M59.42-8.93c2.12.52 4.24 1.12 6.32 1.78 2.08.66 4.15 1.53 6.18 2.39 3.99 1.75 7.87 3.73 11.63 5.93 3.67 2.07 7.12 4.08 10.37 5.86s6.34 3.38 9.28 4.86c3.56 1.78 7.04 3.56 10.15 5.47-18.03-34.97-61-48.71-95.97-30.68A71.202 71.202 0 0 0-.85.13c3.56-2.38 7.36-4.4 11.33-6.02a72.011 72.011 0 0 1 23.92-5.18c8.4-.51 16.83.21 25.02 2.14z">
                                        </path>
                                    </g>
                                </g>
                            </g>
                        </g>
                    </g>
                </g>
            </g>
            <g transform="translate(162 4.6525)">
                <g transform="scale(1)" data-gra="path-name">
                    <path transform="translate(-2.9354 46.497)"
                        d="m30.47 0v-46.5h-8.81v22.78l-10.04-22.78h-8.68v46.5h8.8v-22.84l10.1 22.84z" />
                </g>
            </g>
        </g>
        <g class="tp-slogan" transform="translate(5 61.802)" data-gra="path-slogan">
            <rect y="3.58" width="66.35" height="1" />
            <rect x="113.18" y="3.58" width="66.35" height="1"></rect>
            <g transform="translate(69.35)">
                <g transform="scale(1)">
                    <path transform="translate(-.624 8.016)"
                        d="m0.62-3.94c0 0.64 0.09 1.22 0.26 1.73 0.17 0.5 0.41 0.93 0.72 1.28s0.67 0.61 1.09 0.8c0.42 0.18 0.88 0.27 1.38 0.27s0.95-0.1 1.34-0.3 0.75-0.48 1.06-0.84l-0.57-0.61c-0.25 0.28-0.52 0.5-0.81 0.65-0.28 0.15-0.61 0.23-1 0.23-0.37 0-0.71-0.08-1.01-0.23s-0.56-0.37-0.76-0.65c-0.21-0.28-0.37-0.62-0.49-1.01-0.12-0.4-0.17-0.84-0.17-1.34 0-0.49 0.06-0.93 0.18-1.32s0.28-0.73 0.5-1c0.22-0.28 0.48-0.49 0.78-0.64s0.64-0.22 1.02-0.22c0.34 0 0.63 0.07 0.88 0.2s0.48 0.31 0.69 0.53l0.57-0.63c-0.24-0.26-0.53-0.49-0.89-0.68-0.36-0.2-0.78-0.3-1.26-0.3-0.51 0-0.97 0.1-1.4 0.29-0.43 0.18-0.8 0.45-1.11 0.81-0.31 0.35-0.56 0.78-0.73 1.28-0.18 0.5-0.27 1.07-0.27 1.7zm10.66 0.74h-2.36l0.37-1.2c0.14-0.44 0.28-0.88 0.41-1.32 0.12-0.43 0.25-0.88 0.37-1.34h0.05c0.12 0.46 0.25 0.91 0.38 1.34 0.13 0.44 0.26 0.88 0.41 1.32zm0.25 0.8 0.75 2.4h1.06l-2.66-7.87h-1.13l-2.66 7.87h1.02l0.75-2.4zm2.93-5.47v7.87h1v-3.12h1.41c0.43 0 0.83-0.05 1.18-0.15 0.36-0.1 0.67-0.25 0.92-0.45 0.26-0.2 0.46-0.45 0.6-0.76 0.14-0.3 0.21-0.66 0.21-1.08 0-0.43-0.07-0.79-0.21-1.09-0.14-0.29-0.34-0.53-0.59-0.71s-0.56-0.31-0.92-0.39-0.76-0.12-1.19-0.12zm2.29 3.93h-1.29v-3.13h1.29c0.68 0 1.19 0.11 1.53 0.33 0.33 0.22 0.5 0.62 0.5 1.18s-0.17 0.97-0.5 1.23-0.84 0.39-1.53 0.39zm4.62-3.93v7.87h1v-7.87zm4.79 0.84v7.03h1.01v-7.03h2.37v-0.84h-5.76v0.84zm7.67 3.83h-2.37l0.38-1.2c0.14-0.44 0.28-0.88 0.4-1.32 0.13-0.43 0.26-0.88 0.38-1.34h0.04c0.13 0.46 0.26 0.91 0.39 1.34 0.13 0.44 0.26 0.88 0.41 1.32zm0.25 0.8 0.74 2.4h1.07l-2.66-7.87h-1.13l-2.66 7.87h1.02l0.75-2.4zm2.93-5.47v7.87h4.44v-0.85h-3.45v-7.02z" />
                </g>
            </g>
        </g>
    </g>
</svg>