<svg class="text-4xl text-gray-300" height="1em" viewBox="0 0 1300 250" width="5.2em" data-icon="logo/evene">
    <symbol id="ai:local:logo/evene">
        <path
            d="M193.34 9.55h-176c-1.1 0-2 .76-2 1.7v13.59c0 .94.9 1.7 2 1.7h176c1.1 0 2-.76 2-1.7V11.25c0-.94-.9-1.7-2-1.7zm-.69 104.47h-176c-1.1 0-2 .76-2 1.7v13.59c0 .94.9 1.7 2 1.7h176c1.1 0 2-.76 2-1.7v-13.59c0-.94-.89-1.7-2-1.7zm0 108.68h-176c-1.1 0-2 .76-2 1.7v13.59c0 .94.9 1.7 2 1.7h176c1.1 0 2-.76 2-1.7V224.4c0-.94-.89-1.7-2-1.7zm517.24-213h-176c-1.1 0-2 .76-2 1.7v13.59c0 .94.9 1.7 2 1.7h176c1.1 0 2-.76 2-1.7V11.4c0-.94-.9-1.7-2-1.7zm-.69 104.47h-176c-1.1 0-2 .76-2 1.7v13.59c0 .94.9 1.7 2 1.7h176c1.1 0 2-.76 2-1.7v-13.59c0-.94-.89-1.7-2-1.7zm0 108.69h-176c-1.1 0-2 .76-2 1.7v13.59c0 .94.9 1.7 2 1.7h176c1.1 0 2-.76 2-1.7v-13.59c0-.94-.89-1.7-2-1.7zM1283.35 9.74h-176c-1.1 0-2 .76-2 1.7v13.59c0 .94.9 1.7 2 1.7h176c1.1 0 2-.76 2-1.7V11.44c0-.94-.9-1.7-2-1.7zm-.69 104.47h-176c-1.1 0-2 .76-2 1.7v13.59c0 .94.9 1.7 2 1.7h176c1.1 0 2-.76 2-1.7v-13.59c0-.94-.89-1.7-2-1.7zm0 108.69h-176c-1.1 0-2 .76-2 1.7v13.59c0 .94.9 1.7 2 1.7h176c1.1 0 2-.76 2-1.7V224.6c0-.94-.89-1.7-2-1.7zM488.79 12.07l-118.16 226.6c-.32.61-1.04 1.01-1.83 1.01h-19.16c-.79 0-1.51-.4-1.83-1.01L229.4 11.57c-.59-1.12.38-2.39 1.83-2.39h17.5c.79 0 1.51.4 1.83 1.01l106.84 204.9c.7 1.35 2.95 1.35 3.66 0L467.7 10.57c.32-.62 1.05-1.02 1.85-1.01l17.43.12c1.44.01 2.39 1.27 1.81 2.39zm522.86 227.8-14.89-.03c-.61 0-1.19-.24-1.57-.65L816.55 45.68c-1.17-1.27-3.57-.57-3.57 1.05v191.41c0 .94-.9 1.7-2 1.7h-16c-1.1 0-2-.76-2-1.7V11.27c0-.95.91-1.71 2.03-1.7l12.82.16c.6.01 1.17.25 1.55.65l180.71 195.74c1.17 1.27 3.57.57 3.57-1.05V11.25c0-.94.9-1.7 2-1.7h16c1.1 0 2 .76 2 1.7v226.93c-.01.93-.91 1.7-2.01 1.69z"
            fill="currentColor" class="st0"></path>
    </symbol>
    <use xlink:href="#ai:local:logo/evene"></use>
</svg>