<?xml version="1.0" encoding="UTF-8"?><svg xmlns="http://www.w3.org/2000/svg" version="1.1" width="595" height="118">
<path d="M0 0 C2.97 0 5.94 0 9 0 C15.86162222 12.90568945 22.51760429 25.89972443 29 39 C34.50936087 29.00737698 39.5440878 18.83113343 44.40551758 8.50756836 C44.85822021 7.54858643 45.31092285 6.58960449 45.77734375 5.6015625 C46.18202881 4.73869629 46.58671387 3.87583008 47.00366211 2.98681641 C48 1 48 1 49 0 C51.97 0 54.94 0 58 0 C58 16.5 58 33 58 50 C55.69 50 53.38 50 51 50 C50.67 38.78 50.34 27.56 50 16 C44.39 27.22 38.78 38.44 33 50 C30.69 50 28.38 50 26 50 C24.00285227 48.00285227 23.21787385 46.59904947 22.046875 44.0703125 C21.67433594 43.27367187 21.30179688 42.47703125 20.91796875 41.65625 C20.53253906 40.8209375 20.14710938 39.985625 19.75 39.125 C16.29229846 31.67949633 12.67412269 24.34824538 9 17 C8.67 27.89 8.34 38.78 8 50 C5.36 50 2.72 50 0 50 C0 33.5 0 17 0 0 Z " transform="translate(172,37)"/>
<path d="M0 0 C8.6625 -0.0928125 8.6625 -0.0928125 17.5 -0.1875 C20.20993164 -0.22846802 20.20993164 -0.22846802 22.97460938 -0.27026367 C24.43098282 -0.27903796 25.88736371 -0.28667966 27.34375 -0.29296875 C28.08012695 -0.30831665 28.81650391 -0.32366455 29.57519531 -0.33947754 C35.94135849 -0.34263954 41.41048091 0.92838473 46.5 5 C48.8013158 9.60263161 48.62408519 13.95404288 48 19 C46.29493504 23.21779226 43.64114838 25.34294578 40 28 C40.721875 29.093125 41.44375 30.18625 42.1875 31.3125 C50 43.8125 50 43.8125 50 50 C47.36 50 44.72 50 42 50 C41.46890625 48.80761719 40.9378125 47.61523438 40.390625 46.38671875 C39.67765169 44.82005372 38.96407852 43.25366159 38.25 41.6875 C37.90195312 40.90181641 37.55390625 40.11613281 37.1953125 39.30664062 C36.84726562 38.54931641 36.49921875 37.79199219 36.140625 37.01171875 C35.66931152 35.96697388 35.66931152 35.96697388 35.18847656 34.90112305 C33.71980977 32.55179924 32.39305066 31.39914549 30 30 C27.49640263 29.50142674 27.49640263 29.50142674 24.796875 29.48828125 C23.8171875 29.45283203 22.8375 29.41738281 21.828125 29.38085938 C20.81234375 29.35830078 19.7965625 29.33574219 18.75 29.3125 C17.71875 29.27833984 16.6875 29.24417969 15.625 29.20898438 C13.08371301 29.12662785 10.54187399 29.06163407 8 29 C8 35.93 8 42.86 8 50 C5.36 50 2.72 50 0 50 C0 33.5 0 17 0 0 Z M8 6 C8 11.28 8 16.56 8 22 C12.20872148 22.08105241 16.4158763 22.14053316 20.625 22.1875 C21.81480469 22.21263672 23.00460937 22.23777344 24.23046875 22.26367188 C32.62676081 22.45507878 32.62676081 22.45507878 40 19 C41.39935013 16.20129973 41.25265405 14.09501208 41 11 C39.18272738 8.0068451 36.51931615 7.31397772 33.23999023 6.41015625 C28.56142274 5.55348122 23.80088991 5.79852692 19.0625 5.875 C17.46438477 5.88853516 17.46438477 5.88853516 15.83398438 5.90234375 C13.22255839 5.92576461 10.61124913 5.96163063 8 6 Z " transform="translate(462,37)"/>
<path d="M0 0 C14.52 0 29.04 0 44 0 C44 1.98 44 3.96 44 6 C32.12 6 20.24 6 8 6 C8 10.62 8 15.24 8 20 C9.49164673 19.99214478 9.49164673 19.99214478 11.01342773 19.98413086 C14.69033921 19.96607959 18.36724675 19.95456754 22.04418945 19.94506836 C23.63794614 19.94002843 25.23169819 19.9331965 26.82543945 19.92456055 C29.11150253 19.91248001 31.39750467 19.90676845 33.68359375 19.90234375 C34.40026718 19.89718246 35.11694061 19.89202118 35.85533142 19.88670349 C37.57063672 19.88650737 39.28581266 19.93807993 41 20 C42 21 42 21 42 27 C30.78 27 19.56 27 8 27 C8 32.28 8 37.56 8 43 C20.21 43 32.42 43 45 43 C45 45.31 45 47.62 45 50 C30.15 50 15.3 50 0 50 C0 33.5 0 17 0 0 Z " transform="translate(111,37)"/>
<path d="M0 0 C2.01025378 2.01025378 3.14325833 3.38834243 4.0625 6.0625 C4.0625 7.3825 4.0625 8.7025 4.0625 10.0625 C1.7525 10.0625 -0.5575 10.0625 -2.9375 10.0625 C-3.14375 9.27875 -3.35 8.495 -3.5625 7.6875 C-4.7057298 4.83943419 -4.7057298 4.83943419 -7.55078125 3.91796875 C-11.30894037 2.96867596 -14.62574299 2.76172833 -18.5 2.75 C-19.78003906 2.73324219 -21.06007813 2.71648438 -22.37890625 2.69921875 C-26.11154905 3.0802679 -28.01198484 3.75404265 -30.9375 6.0625 C-31.77083333 8.5625 -31.77083333 8.5625 -30.9375 11.0625 C-25.70721422 15.29287821 -18.54349057 15.81168163 -12.12890625 17.08007812 C-5.45909808 18.48209903 0.45065284 19.94513403 5 25.375 C6.39273883 28.89780998 6.52478841 31.2981515 6.0625 35.0625 C2.91476303 41.23690713 -1.18589706 44.14529902 -7.6875 46.3125 C-18.2349062 48.56261332 -28.3146703 47.13329896 -37.40625 41.37890625 C-38.9375 40.0625 -38.9375 40.0625 -39.9375 37.0625 C-40.5975 36.7325 -41.2575 36.4025 -41.9375 36.0625 C-41.9375 33.7525 -41.9375 31.4425 -41.9375 29.0625 C-39.6275 29.0625 -37.3175 29.0625 -34.9375 29.0625 C-34.525 29.990625 -34.1125 30.91875 -33.6875 31.875 C-31.72803715 35.44402163 -30.10983697 37.36285093 -26.203125 38.62109375 C-18.54599094 40.1129147 -10.76736125 39.94310299 -3.9375 36.0625 C-2.62629347 34.95453039 -2.62629347 34.95453039 -2.5625 32.1875 C-2.5831327 29.00048472 -2.5831327 29.00048472 -4.78515625 27.515625 C-10.1333578 25.05028302 -15.89813862 24.23144132 -21.65820312 23.1328125 C-29.05023396 21.59890303 -35.59911806 19.57007291 -39.9375 13.0625 C-40.45855284 9.1546037 -40.75915234 6.58799423 -38.875 3.08984375 C-29.77285351 -8.55991439 -11.53619829 -7.60898185 0 0 Z " transform="translate(316.9375,40.9375)"/>
<path d="M0 0 C2.88139531 2.23342603 5.09420663 4.33730738 6.2578125 7.828125 C6.2578125 8.818125 6.2578125 9.808125 6.2578125 10.828125 C3.0078125 11.140625 3.0078125 11.140625 -0.7421875 10.828125 C-2.8671875 8.453125 -2.8671875 8.453125 -4.7421875 5.828125 C-8.89948794 3.6018111 -12.64483228 3.55961515 -17.3046875 3.578125 C-18.60535156 3.57296875 -19.90601563 3.5678125 -21.24609375 3.5625 C-24.41824104 3.80351231 -26.18276258 4.00265281 -28.7421875 5.828125 C-29.82243408 8.22922717 -29.82243408 8.22922717 -29.7421875 10.828125 C-27.42626542 13.98933158 -24.92349652 14.50333097 -21.19140625 15.29296875 C-20.10021484 15.53595703 -19.00902344 15.77894531 -17.88476562 16.02929688 C-15.59338576 16.51762373 -13.30172131 17.00461727 -11.00976562 17.49023438 C-3.92817382 19.06994202 0.71995085 20.64404952 6.1328125 25.515625 C8.33109046 30.03430748 7.91358769 34.90451777 6.3203125 39.578125 C0.82318171 45.57499496 -6.34064663 47.8257372 -14.26171875 48.80078125 C-22.4890046 48.86541761 -31.53155978 46.51136602 -37.54296875 40.62109375 C-39.74520162 37.32850454 -40.31934751 33.71134943 -40.7421875 29.828125 C-38.1021875 29.828125 -35.4621875 29.828125 -32.7421875 29.828125 C-32.4121875 30.92125 -32.0821875 32.014375 -31.7421875 33.140625 C-30.28883273 36.4340069 -29.72205576 36.83968211 -26.3671875 38.765625 C-19.5426146 40.79659771 -11.26367226 41.04871147 -4.4921875 38.703125 C-1.49576071 37.04671316 -1.49576071 37.04671316 -0.6171875 33.828125 C-0.45903158 30.90129422 -0.45903158 30.90129422 -1.91674805 29.234375 C-4.24285161 27.44243217 -6.21390051 26.97908897 -9.07421875 26.328125 C-10.12029297 26.080625 -11.16636719 25.833125 -12.24414062 25.578125 C-13.33662109 25.330625 -14.42910156 25.083125 -15.5546875 24.828125 C-33.28754387 20.76764984 -33.28754387 20.76764984 -37.7421875 14.828125 C-38.82365403 10.9348455 -38.96770231 8.57984104 -37.8046875 4.703125 C-29.5862911 -6.7528215 -11.14603759 -7.4973347 0 0 Z " transform="translate(376.7421875,40.171875)"/>
<path d="M0 0 C-0.14168137 1.43791516 -0.28851043 2.8753237 -0.4375 4.3125 C-0.55931641 5.51326172 -0.55931641 5.51326172 -0.68359375 6.73828125 C-1 9 -1 9 -2 12 C-5.96424471 11.3502435 -9.36162451 10.10797093 -13.0625 8.5625 C-28.62677104 2.491206 -45.63260408 2.07648693 -61.296875 8.3125 C-63.15672795 9.17846328 -65.00320582 10.0743739 -66.828125 11.01171875 C-69 12 -69 12 -72 12 C-72.50559908 10.56445975 -73.0042749 9.1264798 -73.5 7.6875 C-73.91765625 6.48673828 -73.91765625 6.48673828 -74.34375 5.26171875 C-75 3 -75 3 -75 0 C-50.03663971 -13.18641742 -24.77267998 -16.51511998 0 0 Z " transform="translate(96,62)"/>
<path d="M0 0 C3.3 0 6.6 0 10 0 C13.26235845 6.47530451 16.51946863 12.95321127 19.77172852 19.43359375 C20.87900998 21.63809492 21.98772598 23.84187616 23.09790039 26.04492188 C24.69273898 29.21035922 26.28241265 32.37834377 27.87109375 35.546875 C28.36902939 36.53242371 28.86696503 37.51797241 29.37998962 38.53338623 C29.84039139 39.4540387 30.30079315 40.37469116 30.77514648 41.32324219 C31.1815184 42.1315448 31.58789032 42.93984741 32.00657654 43.77264404 C32.93181368 45.84711938 33.53137233 47.78283937 34 50 C27.9453125 50.1953125 27.9453125 50.1953125 26 50 C24 48 24 48 19 36 C10.09 35.67 1.18 35.34 -8 35 C-8.99 37.97 -9.98 40.94 -11 44 C-11.95723017 46.02081924 -12.93988057 48.03120677 -14 50 C-16.64 50 -19.28 50 -22 50 C-22.33 49.34 -22.66 48.68 -23 48 C-22.34 48 -21.68 48 -21 48 C-20.505 46.2984375 -20.505 46.2984375 -20 44.5625 C-16.15525125 33.04630422 -10.16796297 22.12073335 -4.61450195 11.35327148 C-2.72434521 7.64433047 -1.21134487 3.9827551 0 0 Z M5 8 C3.33012108 11.31089026 1.66463741 14.62397175 0 17.9375 C-0.47695313 18.88302734 -0.95390625 19.82855469 -1.4453125 20.80273438 C-1.89648438 21.70185547 -2.34765625 22.60097656 -2.8125 23.52734375 C-3.23144531 24.35999756 -3.65039062 25.19265137 -4.08203125 26.05053711 C-5.07100255 27.79165617 -5.07100255 27.79165617 -5 29 C1.93 29 8.86 29 16 29 C13.45954897 23.95844677 13.45954897 23.95844677 10.91455078 18.91918945 C9.11319619 15.33054627 7.41106706 11.76532105 6 8 C5.67 8 5.34 8 5 8 Z " transform="translate(416,37)"/>
<path d="M0 0 C3.33533222 4.11406618 4 7.78861076 4 13 C3.40574219 12.81824219 2.81148438 12.63648437 2.19921875 12.44921875 C-20.73956539 5.4926668 -43.42250007 2.0683543 -66.14453125 12.23046875 C-68 13 -68 13 -70 13 C-70.37403045 7.88825051 -69.494523 4.48305757 -67 0 C-63.8125 -1.70703125 -63.8125 -1.70703125 -60 -2.8125 C-59.32646484 -3.01061279 -58.65292969 -3.20872559 -57.95898438 -3.4128418 C-55.9803736 -3.9787979 -53.99567474 -4.49796956 -52 -5 C-51.0409375 -5.2475 -50.081875 -5.495 -49.09375 -5.75 C-33.49585594 -9.13267582 -14.16324825 -7.77297002 0 0 Z " transform="translate(92,42)"/>
<path d="M0 0 C1.57296097 1.06808762 3.13970387 2.14576067 4.6875 3.25 C2.05893342 10.08882473 2.05893342 10.08882473 -1.3125 12.25 C-4.43745807 11.97474463 -7.32769064 11.19391407 -10.3125 10.25 C-10.3125 9.59 -10.3125 8.93 -10.3125 8.25 C-23.42918773 6.44130876 -34.85029493 6.23693205 -47.3125 11.25 C-49.4296875 12.046875 -49.4296875 12.046875 -51.3125 12.25 C-53.05078125 11.17578125 -53.05078125 11.17578125 -54.625 9.5625 C-55.15738281 9.04300781 -55.68976562 8.52351563 -56.23828125 7.98828125 C-57.3125 6.25 -57.3125 6.25 -57.24609375 4.23046875 C-54.87743986 -0.79424892 -48.10593976 -3.00425847 -43.25 -5.0234375 C-28.05632939 -10.27419131 -13.57639962 -8.55903454 0 0 Z " transform="translate(85.3125,75.75)"/>
<path d="M0 0 C0.495 1.485 0.495 1.485 1 3 C0.31035156 3.73863281 -0.37929688 4.47726563 -1.08984375 5.23828125 C-7.32835092 11.95873318 -13.31498285 18.79897828 -19 26 C-19.78467651 26.90927246 -19.78467651 26.90927246 -20.58520508 27.83691406 C-22.26521174 30.40548335 -22.41884581 31.93814265 -22.51171875 34.984375 C-22.54716797 35.91894531 -22.58261719 36.85351562 -22.61914062 37.81640625 C-22.64169922 38.78449219 -22.66425781 39.75257812 -22.6875 40.75 C-22.72166016 41.73355469 -22.75582031 42.71710938 -22.79101562 43.73046875 C-22.87335273 46.15353199 -22.94254838 48.57623998 -23 51 C-25.31 51 -27.62 51 -30 51 C-29.97474243 50.07888428 -29.97474243 50.07888428 -29.94897461 49.13916016 C-29.15977489 35.22577275 -29.15977489 35.22577275 -35 23.3125 C-36.65311869 21.85944026 -38.32021537 20.42214895 -40 19 C-41.62208684 17.1372164 -43.20571073 15.2402705 -44.75 13.3125 C-45.48605469 12.405 -46.22210937 11.4975 -46.98046875 10.5625 C-49.43672654 7.44585568 -51.74912993 4.26739204 -54 1 C-50.39419569 0.36026053 -48.47561356 0.08861689 -45 1 C-41.10636439 4.2118008 -38.10583885 8.0394343 -35 12 C-34.20464844 12.97582031 -33.40929687 13.95164062 -32.58984375 14.95703125 C-30.70076079 17.28590072 -28.83918362 19.63166579 -27 22 C-23.16700804 18.21660313 -19.46624971 14.33134703 -15.8125 10.375 C-15.27947266 9.80265625 -14.74644531 9.2303125 -14.19726562 8.640625 C-11.91941297 6.17653282 -9.86520669 3.79781004 -8 1 C-6.0546875 0.48828125 -6.0546875 0.48828125 -3.875 0.3125 C-2.59625 0.209375 -1.3175 0.10625 0 0 Z " transform="translate(576,36)"/>
<path d="M0 0 C1.957594 1.37929559 3.58430702 2.67230702 5.12890625 4.5 C5.12890625 5.16 5.12890625 5.82 5.12890625 6.5 C4.57130615 6.40912109 4.01370605 6.31824219 3.43920898 6.22460938 C-15.87446354 3.12966031 -32.57725553 3.35544726 -51.87109375 6.5 C-38.23613757 -10.48512583 -17.78106669 -10.9597586 0 0 Z " transform="translate(81.87109375,29.5)"/>
<path d="M0 0 C2.64 0 5.28 0 8 0 C8 16.5 8 33 8 50 C5.69 50 3.38 50 1 50 C0.67 33.5 0.34 17 0 0 Z " transform="translate(249,37)"/>
<path d="M0 0 C0.66 0.33 1.32 0.66 2 1 C2 1.66 2 2.32 2 3 C-9.92793976 7.81415947 -20.0067407 8.82319355 -32.05078125 3.875 C-33.01564453 3.441875 -33.01564453 3.441875 -34 3 C-34 2.34 -34 1.68 -34 1 C-23.16731164 -5.45794883 -11.2686391 -6.55582041 0 0 Z " transform="translate(75,90)"/>
<path d="M0 0 C0.66 0.33 1.32 0.66 2 1 C0.68 2.32 -0.64 3.64 -2 5 C0.97 5.495 0.97 5.495 4 6 C4 6.33 4 6.66 4 7 C-0.29 7.66 -4.58 8.32 -9 9 C-6.21000549 5.51250686 -3.74764169 2.49842779 0 0 Z " transform="translate(39,27)"/>
<path d="M0 0 C0.33 0.99 0.66 1.98 1 3 C0.01 3.495 0.01 3.495 -1 4 C-1 3.34 -1 2.68 -1 2 C-6.67023649 3.35005631 -9.17957309 5.8157229 -13 10 C-13.66 9.67 -14.32 9.34 -15 9 C-9.5470852 1.51928251 -9.5470852 1.51928251 -5.75390625 0.24609375 C-3.5625 0 -3.5625 0 0 0 Z " transform="translate(576,36)"/>
</svg>